<svg width="900" height="900" viewBox="0 0 900 900" fill="none" xmlns="http://www.w3.org/2000/svg">
<circle cx="450" cy="450" r="450" fill="white"/>
<path d="M139.855 379.318V503H113.791V379.318H139.855ZM264.865 379.318V503H242.204L188.498 425.222H187.502V503H161.438V379.318H184.348L237.722 457.097H238.801V379.318H264.865ZM308.776 379.318L338.576 473.283H339.821L369.704 379.318H398.674L356.008 503H322.39L279.641 379.318H308.776ZM413.449 503V379.318H496.789V400.9H439.514V429.953H492.39V451.12H439.514V481.418H496.955V503H413.449ZM517.541 503V379.318H566.184C580.24 379.318 591.141 382.998 598.889 390.358C606.691 397.718 610.593 407.513 610.593 419.743C610.593 428.21 608.711 435.459 604.948 441.491C601.185 447.468 595.79 451.95 588.762 454.938L614.992 503H586.105L562.697 459.172H543.605V503H517.541ZM543.605 438.171H561.286C576.228 438.171 583.698 432.028 583.698 419.743C583.698 413.601 581.844 408.897 578.137 405.632C574.429 402.367 568.785 400.734 561.203 400.734H543.605V438.171ZM684.968 504.66C674.011 504.66 664.16 502.17 655.417 497.189C646.674 492.209 639.756 484.987 634.665 475.524C629.574 466.062 627.028 454.634 627.028 441.242C627.028 427.74 629.574 416.257 634.665 406.794C639.756 397.331 646.674 390.109 655.417 385.129C664.16 380.148 674.011 377.658 684.968 377.658C695.925 377.658 705.747 380.148 714.436 385.129C723.179 390.109 730.096 397.331 735.188 406.794C740.279 416.257 742.824 427.74 742.824 441.242C742.824 454.745 740.279 466.228 735.188 475.69C730.096 485.098 723.179 492.292 714.436 497.272C705.747 502.198 695.925 504.66 684.968 504.66ZM653.508 441.242C653.508 454.302 656.358 464.291 662.058 471.208C667.813 478.125 675.45 481.584 684.968 481.584C694.431 481.584 702.012 478.125 707.712 471.208C713.467 464.291 716.345 454.302 716.345 441.242C716.345 428.127 713.467 418.111 707.712 411.193C702.012 404.221 694.431 400.734 684.968 400.734C675.45 400.734 667.813 404.221 662.058 411.193C656.358 418.111 653.508 428.127 653.508 441.242Z" fill="black"/>
<path d="M780.178 504.577C776.083 504.577 772.624 503.194 769.802 500.427C766.979 497.604 765.568 494.174 765.568 490.134C765.568 486.039 766.979 482.608 769.802 479.841C772.624 477.074 776.083 475.69 780.178 475.69C784.273 475.69 787.731 477.074 790.554 479.841C793.376 482.608 794.787 486.039 794.787 490.134C794.787 494.174 793.376 497.604 790.554 500.427C787.731 503.194 784.273 504.577 780.178 504.577Z" fill="#4F46E5"/>
</svg>
